HIERARCHY
ROOT Hips
{
	OFFSET 0.00000 0.00000 0.00000
	CHANNELS 6 Xposition Yposition Zposition Yrotation Zrotation Xrotation 
	JOINT Lumbar
	{
		OFFSET 0 0 0
		CHANNELS 3 Zrotation Xrotation Yrotation
		JOINT Neck
		{
			OFFSET 0.00 0.2701 0.00
			CHANNELS 3 Zrotation Xrotation Yrotation
			End Site
			{
				OFFSET 0.00 0.1379 0.00
			}
		}
		JOINT RightShoulder
		{
			OFFSET 0.0119 0.2289 0.1181
			CHANNELS 3 Zrotation Xrotation Yrotation
			JOINT RightElbow
			{
				OFFSET 0.00 -0.1475 0.00
				CHANNELS 2 Zrotation Yrotation
				JOINT RightWrist
				{
					OFFSET 0.00 -0.1605 0.00
					CHANNELS 2 Zrotation Xrotation
					End Site
					{
						OFFSET 0.0040 -0.1068 0.0006
					}
				}
			}
		}
		JOINT LeftShoulder
		{
			OFFSET 0.0119 0.2289 -0.1181
			CHANNELS 3 Zrotation Xrotation Yrotation
			JOINT LeftElbow
			{
				OFFSET 0.00 -0.1475 0.00
				CHANNELS 2 Zrotation Yrotation
				JOINT LeftWrist
				{
					OFFSET 0.00 -0.1605 0.00
					CHANNELS 2 Zrotation Xrotation
					End Site
					{
						OFFSET 0.0040 -0.1068 -0.0006
					}
				}
			}
		}
	}
	JOINT RightHip
	{
		OFFSET 0.0316 -0.0424 0.0458
		CHANNELS 3 Zrotation Xrotation Yrotation
		JOINT RightKnee
		{
			OFFSET 0.00 -0.2438 0.00
			CHANNELS 1 Zrotation
			JOINT RightAnkle
			{
				OFFSET 0.00 -0.2449 0.00
				CHANNELS 3 Zrotation Xrotation Yrotation
				End Site
				{
					OFFSET 0.1237 -0.0542 0.0051
				}
			}
		}
	}
	JOINT LeftHip
	{
		OFFSET 0.0316 -0.0424 -0.0458
		CHANNELS 3 Zrotation Xrotation Yrotation
		JOINT LeftKnee
		{
			OFFSET 0.00 -0.2438 0.00
			CHANNELS 1 Zrotation
			JOINT LeftAnkle
			{
				OFFSET 0.00 -0.2449 0.00
				CHANNELS 3 Zrotation Xrotation Yrotation
				End Site
				{
					OFFSET 0.1237 -0.0542 -0.0051
				}
			}
		}
	}
}
MOTION
Frames: 26
Frame Time: 0.02
0.7846 0.56973 0.12313 892.06556 0 -1.17325 -3.45609 5.44338 16.29055 -7.39215 -10.65307 11.50711 41.75075 -8.94252 -24.44466 7.85284 78.58082 -5.06518 -3.79317 -20.51525 25.4573 77.9491 5.33631 -80.99551 -16.33473 3.67919 -13.55822 10.79091 5.94445 -21.66814 5.32974 -6.59036 -12.12808 17.83563 -9.52058 -6.61629 -18.80249 7.31774 5.60853 8.09773
0.77029 0.56701 0.11807 892.03491 0 -0.60109 -2.91637 4.7365 16.34764 -8.01352 -10.45672 11.5498 42.4207 -8.73626 -23.64061 7.81608 78.53461 -5.07777 -3.79446 -20.40186 25.16571 80.80251 5.32288 -81.61283 -17.17014 3.79634 -12.17615 9.90365 4.86831 -26.37573 4.39191 -5.62502 -9.12692 17.60927 -10.11158 -6.09833 -19.48612 7.13865 5.43835 7.42794
0.75545 0.5639 0.11295 891.91685 0 -0.02298 -2.24568 3.94696 16.32466 -8.7241 -9.9586 11.59317 43.13804 -8.6976 -22.62225 7.77745 78.50032 -5.13855 -3.82884 -19.99986 24.53649 82.8641 5.33075 -81.9851 -17.99988 3.81691 -10.18074 8.82811 3.68985 -32.14252 3.18492 -4.32989 -5.50224 17.58552 -10.65922 -5.51248 -22.11629 6.90747 5.29569 7.10251
0.7409 0.56106 0.10786 891.82007 0 0.52837 -1.64477 3.22189 16.33541 -9.38574 -9.59737 11.63631 43.8333 -8.57444 -21.67462 7.742 78.46154 -5.17529 -3.84336 -19.67786 24.04108 85.24112 5.32847 -82.49506 -18.79474 3.8877 -8.43117 7.8576 2.59804 -37.39438 2.13128 -3.22487 -2.25576 17.43365 -11.20259 -4.98588 -23.78374 6.74082 5.17725 6.65659
0.72607 0.55781 0.10273 891.79517 0 1.18175 -0.99627 2.38184 16.35841 -10.08714 -9.23429 11.67879 44.53505 -8.48756 -20.83792 7.69549 78.419 -5.21946 -3.87658 -19.57176 23.62562 87.84416 5.32801 -82.90935 -19.75029 3.93292 -6.80929 6.80057 1.31956 -42.8293 0.94983 -1.95017 1.4239 17.41942 -11.84772 -4.34085 -25.77664 6.40324 4.90665 6.03909
0.71174 0.55533 0.09768 891.60553 0 1.62261 -0.41756 1.76296 16.33388 -10.72548 -8.80253 11.72091 45.23286 -8.36509 -19.72267 7.67122 78.38577 -5.26038 -3.87901 -18.94367 22.96401 89.74853 5.32916 -83.44659 -20.36396 4.00481 -4.78451 5.88277 0.41084 -48.09578 -0.02942 -0.95208 4.32818 17.17054 -12.26867 -3.9279 -27.55323 6.40323 4.95353 5.86491
0.69887 0.55496 0.09289 890.94055 0 1.49112 -0.06219 1.76485 16.2301 -11.16485 -8.28037 11.78705 45.90861 -8.096 -17.85639 7.71924 78.3919 -5.27871 -3.79274 -16.99017 21.7139 90.22029 5.32798 -84.53797 -20.09808 4.2154 -1.74507 5.36892 0.56801 -52.91434 -0.39892 -0.77817 5.0477 16.24568 -12.1026 -4.14565 -28.28781 7.41664 5.93141 6.87145
0.68653 0.55539 0.08818 890.12136 0 1.14334 0.21744 1.99357 16.07576 -11.53743 -7.69625 11.84853 46.57794 -7.78642 -15.72347 7.7882 78.40452 -5.29275 -3.67408 -14.51302 20.22802 89.95482 5.3291 -85.73557 -19.47957 4.45007 1.66605 5.00618 1.10173 -57.46963 -0.55412 -0.89689 4.94422 15.07672 -11.70897 -4.60302 -28.73399 8.75982 7.21712 8.30712
0.67397 0.55552 0.08343 889.39991 0 0.88348 0.53039 2.12591 15.92321 -11.94207 -7.12367 11.89594 47.24956 -7.49995 -13.73471 7.8409 78.40291 -5.31005 -3.56726 -12.24707 18.84319 89.83122 5.32875 -86.77892 -18.97827 4.64528 4.87441 4.59289 1.45029 -61.96641 -0.79789 -0.89545 5.1398 14.0068 -11.40517 -4.96858 -29.29079 9.90727 8.3219 9.52401
0.66128 0.55536 0.07871 888.55674 0 0.66506 0.85316 2.22942 15.85609 -12.34327 -6.60761 12.01148 47.92621 -7.19953 -11.64094 7.92142 78.44748 -5.32309 -3.47252 -10.08584 17.46651 90.50995 5.32632 -88.24833 -18.64781 4.95219 8.25538 4.0995 1.84629 -67.26667 -1.08593 -0.83093 5.66404 12.99085 -11.15563 -5.26264 -29.99609 11.24489 9.59969 10.85631
0.64901 0.55599 0.07394 887.93397 0 0.31209 1.13509 2.44494 15.60158 -12.73388 -5.96684 11.98425 48.58939 -6.91627 -9.70603 7.94967 78.39958 -5.34383 -3.34602 -7.58361 16.02845 89.33489 5.33429 -88.87484 -17.89119 5.04005 11.34679 3.80753 2.24423 -70.79934 -1.23024 -0.9684 5.31258 11.80573 -10.74155 -5.7597 -30.30528 12.26739 10.59129 12.04133
0.63776 0.55873 0.06905 887.93815 0 -0.38754 1.32869 2.94094 14.83014 -13.11843 -4.96732 11.56201 49.22458 -6.68981 -8.2735 7.82276 78.07484 -5.38226 -3.12673 -4.28807 14.41884 83.38856 5.32122 -87.01336 -15.93079 4.46059 13.63263 4.06933 2.47061 -69.66717 -1.00472 -1.62048 2.63338 10.1805 -9.91188 -6.79119 -29.52278 12.32299 10.70545 12.75213
0.6269 0.56222 0.0641 888.17364 0 -1.2101 1.48257 3.53753 13.87505 -13.49391 -3.85229 10.99668 49.84538 -6.481 -7.01355 7.64349 77.66055 -5.42889 -2.87886 -0.66482 12.76844 75.58422 5.32802 -84.32846 -13.5756 3.67065 15.59535 4.52395 2.7016 -66.73715 -0.64557 -2.46175 -0.88039 8.39874 -8.92758 -8.01315 -28.35524 12.05386 10.5234 13.29148
0.61588 0.56531 0.05917 888.31624 0 -1.95774 1.64943 4.07067 13.01151 -13.86724 -2.8101 10.49804 50.46678 -6.26388 -5.67391 7.49207 77.30014 -5.47494 -2.65244 2.81979 11.17763 68.51273 5.35731 -82.10717 -11.47461 3.01496 17.64707 4.86749 2.98763 -64.51824 -0.36262 -3.19983 -3.94353 6.70891 -8.02573 -9.1267 -27.39824 11.94352 10.48414 13.88277
0.60484 0.56868 0.05426 888.40129 0 -2.7925 1.83301 4.68548 12.1097 -14.26049 -1.67643 9.99195 51.11061 -6.04769 -4.32133 7.32469 76.88395 -5.50886 -2.38919 6.27823 9.40513 61.84699 5.25189 -79.50299 -9.04267 2.19811 19.95602 5.31172 3.04864 -62.71493 -0.00617 -4.02197 -7.33953 4.92221 -7.0656 -10.34009 -26.27969 11.79518 10.41965 14.59793
0.5939 0.57162 0.04929 888.66377 0 -3.47325 1.976 5.15249 11.24755 -14.61633 -0.71073 9.46781 51.70745 -5.83298 -3.05123 7.17731 76.56306 -5.56844 -2.19628 9.86364 8.00441 53.95339 5.43392 -77.5107 -7.21454 1.66539 21.64798 5.59443 3.57059 -59.65138 0.22507 -4.70842 -10.22564 3.3041 -6.19174 -11.38855 -25.41299 11.64723 10.3352 15.00999
0.58323 0.5733 0.04417 889.3561 0 -3.68901 1.99303 5.17459 10.51508 -14.82463 -0.20334 8.92585 52.15068 -5.62933 -1.87374 7.10265 76.52294 -5.71083 -2.20512 13.69775 7.64333 42.70844 6.38784 -77.31182 -7.12562 1.97919 21.70744 5.34682 5.39276 -53.29827 0.08859 -4.9888 -11.53281 2.18786 -5.60663 -11.92466 -25.31216 11.55208 10.24808 14.61263
0.57262 0.5745 0.03897 890.22081 0 -3.74663 1.97507 5.04604 9.8336 -15.00418 0.12461 8.37126 52.55156 -5.42481 -0.79186 7.04909 76.58242 -5.87634 -2.286 17.64541 7.65874 30.37275 7.63451 -77.77371 -7.6673 2.58367 21.15616 4.93668 7.6685 -45.78774 -0.1802 -5.12249 -12.28846 1.25102 -5.11241 -12.288 -25.48783 11.46968 10.15142 13.91624
0.56192 0.57585 0.03378 891.00924 0 -3.88137 1.98934 4.9928 9.14541 -15.22816 0.5119 7.8244 52.99073 -5.21326 0.27124 6.9825 76.5993 -6.02191 -2.33346 21.55811 7.50066 18.81333 8.75705 -77.99818 -7.93456 3.0487 20.88836 4.62393 9.71977 -38.97062 -0.39819 -5.31136 -13.26987 0.23103 -4.56941 -12.7372 -25.54858 11.40099 10.07304 13.36447
0.55148 0.57752 0.0287 891.79548 0 -3.99677 1.93439 4.91264 8.38181 -15.32099 0.99604 7.26402 53.35187 -5.03297 1.5905 6.928 76.60252 -6.20691 -2.38196 25.42997 7.34995 6.0062 9.83865 -77.93347 -8.12449 3.53934 20.58662 4.21667 11.86104 -31.37962 -0.57753 -5.55301 -14.38311 -0.79906 -4.05254 -13.16604 -25.53369 11.24859 9.93325 12.77178
0.54052 0.5784 0.02337 892.62604 0 -4.11526 2.01436 4.85353 7.7891 -15.67826 1.23558 6.7308 53.86203 -4.78802 2.35666 6.85478 76.65812 -6.316 -2.4468 29.38736 7.27529 -4.43955 11.07982 -78.63257 -8.64545 4.04599 20.21205 3.96766 13.90721 -25.15437 -0.86365 -5.65051 -15.08341 -1.74921 -3.50474 -13.58893 -25.76803 11.26552 9.91341 12.19345
0.52806 0.57716 0.0173 893.52069 0 -4.26171 2.48786 4.86951 7.66318 -16.78958 0.83236 6.27597 54.82461 -4.35849 1.61121 6.71849 76.84237 -6.20244 -2.52977 33.73853 7.30694 -8.05856 12.63819 -81.33098 -9.78724 4.54773 19.80766 4.17107 15.71082 -22.94572 -1.47294 -5.35731 -14.74139 -2.64202 -2.85284 -14.07626 -26.44243 11.85431 10.31206 11.74848
0.51508 0.57516 0.01099 894.45599 0 -4.41874 3.09582 4.91431 7.70727 -18.16429 0.19101 5.85011 55.93238 -3.866 0.31508 6.56405 77.07495 -6.0129 -2.62806 38.13415 7.4044 -9.25875 14.35053 -84.76583 -11.25903 5.05262 19.34762 4.54173 17.37943 -22.16578 -2.1748 -4.92824 -14.0052 -3.43682 -2.16782 -14.55458 -27.39128 12.59565 10.81903 11.32738
0.50235 0.57356 0.00481 895.38188 0 -4.5841 3.63477 4.95941 7.66929 -19.40827 -0.33495 5.41079 56.95445 -3.40511 -0.72347 6.42224 77.28017 -5.86315 -2.72633 42.38787 7.47973 -11.58594 16.03397 -87.83865 -12.68479 5.54254 18.90152 4.85228 19.0227 -20.768 -2.79482 -4.57938 -13.46974 -4.19811 -1.49512 -15.0117 -28.33796 13.19698 11.22001 10.88001
0.48956 0.57169 -0.00146 896.27507 0 -4.69243 4.20749 4.94585 7.65225 -20.70048 -0.89868 4.96994 58.06071 -2.92753 -1.79783 6.26262 77.51093 -5.69259 -2.80004 47.1652 7.53586 -13.84591 17.5792 -91.0655 -13.73189 6.0991 18.48569 5.09499 21.04408 -19.20345 -3.58602 -4.14847 -12.82542 -5.28536 -0.83285 -15.57293 -28.78683 14.09266 11.85318 10.4785
0.47677 0.57021 -0.0076 897.24448 0 -4.91926 4.74019 5.0594 7.63258 -21.95181 -1.43632 4.54215 59.02361 -2.47487 -2.92526 6.13554 77.69953 -5.54626 -2.92478 50.85387 7.64204 -15.64363 19.41376 -94.11781 -15.58968 6.51452 17.99672 5.51479 22.2446 -18.33141 -4.04254 -3.85697 -12.32003 -5.66949 -0.14505 -15.91335 -30.32137 14.41675 12.03731 10.00201
